name analog
datacolumns 19
datarows 52
range 0.0 0.025500000000000002
endheader
time	ground_force_vx	ground_force_vy	ground_force_vz	ground_force_px	ground_force_py	ground_force_pz	l_ground_force_vx	l_ground_force_vy	l_ground_force_vz	l_ground_force_px	l_ground_force_py	l_ground_force_pz	ground_torque_x	ground_torque_y	ground_torque_z	l_ground_torque_x	l_ground_torque_y	l_ground_torque_z
0.0	-0.0	-0.0	-0.0	-0.0	-0.0	-0.0	-0.5044326782226562	-19.4736328125	-663.3281860351562	-0.0	-0.0	-0.0	-0.0	-0.0	-0.0	177944.453125	-28247.453125	-840.9874267578125
0.0005	-0.0	-0.0	-0.0	-0.0	-0.0	-0.0	-0.015289194881916	-19.522104263305664	-662.629638671875	-0.0	-0.0	-0.0	-0.0	-0.0	-0.0	177684.53125	-28443.24609375	-489.8192138671875
0.001	-0.0	-0.0	-0.0	-0.0	-0.0	-0.0	0.6670294404029846	-19.257509231567383	-661.76318359375	-0.0	-0.0	-0.0	-0.0	-0.0	-0.0	177450.890625	-28514.203125	-424.8469543457031
0.0015	-0.0	-0.0	-0.0	-0.0	-0.0	-0.0	1.2998045682907104	-19.484527587890625	-662.0369873046875	-0.0	-0.0	-0.0	-0.0	-0.0	-0.0	177504.09375	-28835.96875	-176.84971618652344
0.002	-0.0	-0.0	-0.0	-0.0	-0.0	-0.0	1.6390321254730225	-18.927471160888672	-658.9877319335938	-0.0	-0.0	-0.0	-0.0	-0.0	-0.0	177198.4375	-29143.884765625	-118.53410339355467
0.0025	-0.0	-0.0	-0.0	-0.0	-0.0	-0.0	2.233330249786377	-19.072851181030277	-660.0191040039062	-0.0	-0.0	-0.0	-0.0	-0.0	-0.0	177382.1875	-29290.966796875	99.7899169921875
0.003	-0.0	-0.0	-0.0	-0.0	-0.0	-0.0	1.9149577617645264	-18.812519073486328	-659.93798828125	-0.0	-0.0	-0.0	-0.0	-0.0	-0.0	177181.265625	-29336.150390625	71.59921264648438
0.0035	-0.0	-0.0	-0.0	-0.0	-0.0	-0.0	2.202062129974365	-18.92660903930664	-660.020263671875	-0.0	-0.0	-0.0	-0.0	-0.0	-0.0	177109.890625	-29368.125	181.8459625244141
0.004	-0.0	-0.0	-0.0	-0.0	-0.0	-0.0	2.2651238441467285	-18.66730690002441	-658.94970703125	-0.0	-0.0	-0.0	-0.0	-0.0	-0.0	176656.109375	-29183.92578125	178.1264190673828
0.0045000000000000005	-0.0	-0.0	-0.0	-0.0	-0.0	-0.0	2.1226868629455566	-19.213138580322266	-658.1134643554688	-0.0	-0.0	-0.0	-0.0	-0.0	-0.0	176565.515625	-29431.08203125	291.1392822265625
0.005	-0.0	-0.0	-0.0	-0.0	-0.0	-0.0	1.8879977464675903	-19.21332550048828	-657.9002685546875	-0.0	-0.0	-0.0	-0.0	-0.0	-0.0	176247.21875	-29439.646484375	223.1346740722656
0.0055	-0.0	-0.0	-0.0	-0.0	-0.0	-0.0	1.6287684440612793	-19.18172264099121	-656.1817626953125	-0.0	-0.0	-0.0	-0.0	-0.0	-0.0	175998.8125	-29199.380859375	250.15902709960935
0.006	-0.0	-0.0	-0.0	-0.0	-0.0	-0.0	0.8786803483963013	-19.197778701782227	-655.547119140625	-0.0	-0.0	-0.0	-0.0	-0.0	-0.0	175980.953125	-28802.318359375	195.20970153808597
0.006500000000000001	-0.0	-0.0	-0.0	-0.0	-0.0	-0.0	0.556387186050415	-19.37454605102539	-655.0718383789062	-0.0	-0.0	-0.0	-0.0	-0.0	-0.0	175822.515625	-28925.9921875	19.748558044433597
0.007	-0.0	-0.0	-0.0	-0.0	-0.0	-0.0	0.0077292621135711	-19.21418190002441	-654.0580444335938	-0.0	-0.0	-0.0	-0.0	-0.0	-0.0	175638.984375	-28713.17578125	-93.86702728271484
0.0075	-0.0	-0.0	-0.0	-0.0	-0.0	-0.0	-0.2661323547363281	-19.44695854187012	-654.7232666015625	-0.0	-0.0	-0.0	-0.0	-0.0	-0.0	175610.578125	-28691.181640625	-282.501220703125
0.008	-0.0	-0.0	-0.0	-0.0	-0.0	-0.0	-0.9594822525978088	-18.900840759277344	-656.055908203125	-0.0	-0.0	-0.0	-0.0	-0.0	-0.0	175479.078125	-28401.521484375	-420.77972412109375
0.0085	-0.0	-0.0	-0.0	-0.0	-0.0	-0.0	-1.2255451679229736	-18.95649528503418	-654.94384765625	-0.0	-0.0	-0.0	-0.0	-0.0	-0.0	175469.203125	-28352.009765625	-499.00335693359375
0.009000000000000001	-0.0	-0.0	-0.0	-0.0	-0.0	-0.0	-1.452309489250183	-18.33177757263184	-654.5296630859375	-0.0	-0.0	-0.0	-0.0	-0.0	-0.0	175847.46875	-28302.10546875	-426.4926452636719
0.0095	-0.0	-0.0	-0.0	-0.0	-0.0	-0.0	-1.4028267860412598	-18.282588958740234	-655.2924194335938	-0.0	-0.0	-0.0	-0.0	-0.0	-0.0	175700.71875	-28448.068359375	-437.5362548828125
0.01	-0.0	-0.0	-0.0	-0.0	-0.0	-0.0	-1.1641786098480225	-17.94019317626953	-654.2877807617188	-0.0	-0.0	-0.0	-0.0	-0.0	-0.0	175825.234375	-28751.609375	-348.3500671386719
0.0105	-0.0	-0.0	-0.0	-0.0	-0.0	-0.0	-1.1085257530212402	-17.840980529785156	-654.3547973632812	-0.0	-0.0	-0.0	-0.0	-0.0	-0.0	175485.53125	-28875.798828125	-218.54530334472656
0.011	-0.0	-0.0	-0.0	-0.0	-0.0	-0.0	-0.0	-17.647655487060547	-653.1113891601562	-0.0	-0.0	-0.0	-0.0	-0.0	-0.0	175457.90625	-29028.818359375	-141.59698486328125
0.0115	-0.0	-0.0	-0.0	-0.0	-0.0	-0.0	0.637793779373169	-17.664337158203125	-652.4981689453125	-0.0	-0.0	-0.0	-0.0	-0.0	-0.0	175015.90625	-29128.83203125	62.46348571777344
0.012	-0.0	-0.0	-0.0	-0.0	-0.0	-0.0	0.9927141666412354	-17.676944732666016	-650.4528198242188	-0.0	-0.0	-0.0	-0.0	-0.0	-0.0	174747.671875	-29320.3046875	340.8851623535156
0.0125	-0.0	-0.0	-0.0	-0.0	-0.0	-0.0	1.6893904209136963	-17.29029083251953	-650.0535888671875	-0.0	-0.0	-0.0	-0.0	-0.0	-0.0	174452.234375	-29606.076171875	328.7871398925781
0.013000000000000001	-0.0	-0.0	-0.0	-0.0	-0.0	-0.0	2.043923139572144	-17.20221710205078	-648.5897216796875	-0.0	-0.0	-0.0	-0.0	-0.0	-0.0	174182.03125	-29750.275390625	459.1260681152344
0.0135	-0.0	-0.0	-0.0	-0.0	-0.0	-0.0	2.5929057598114014	-16.8492374420166	-647.3944702148438	-0.0	-0.0	-0.0	-0.0	-0.0	-0.0	173803.484375	-29729.3984375	526.8638916015625
0.014	-0.0	-0.0	-0.0	-0.0	-0.0	-0.0	3.1649270057678223	-16.832414627075195	-645.5701293945312	-0.0	-0.0	-0.0	-0.0	-0.0	-0.0	173379.46875	-30107.619140625	643.8910522460938
0.0145	-0.0	-0.0	-0.0	-0.0	-0.0	-0.0	3.302065849304199	-16.817960739135742	-644.8731079101562	-0.0	-0.0	-0.0	-0.0	-0.0	-0.0	173179.96875	-30450.982421875	744.5949096679688
0.015	-0.0	-0.0	-0.0	-0.0	-0.0	-0.0	3.4922027587890625	-16.798357009887695	-643.2650756835938	-0.0	-0.0	-0.0	-0.0	-0.0	-0.0	172924.71875	-30440.7265625	917.0850219726562
0.0155	-0.0	-0.0	-0.0	-0.0	-0.0	-0.0	4.117280006408691	-16.921340942382812	-643.7672119140625	-0.0	-0.0	-0.0	-0.0	-0.0	-0.0	172273.125	-30626.009765625	870.5078735351562
0.016	-0.0	-0.0	-0.0	-0.0	-0.0	-0.0	3.654595136642456	-17.011333465576172	-641.8093872070312	-0.0	-0.0	-0.0	-0.0	-0.0	-0.0	172314.453125	-30454.734375	1030.6834716796875
0.0165	-0.0	-0.0	-0.0	-0.0	-0.0	-0.0	4.0993170738220215	-16.709150314331055	-641.3182373046875	-0.0	-0.0	-0.0	-0.0	-0.0	-0.0	171743.421875	-30499.162109375	1096.24072265625
0.017	-0.0	-0.0	-0.0	-0.0	-0.0	-0.0	3.9200713634490967	-17.13440704345703	-640.8316650390625	-0.0	-0.0	-0.0	-0.0	-0.0	-0.0	171873.203125	-30719.548828125	1131.5494384765625
0.0175	-0.0	-0.0	-0.0	-0.0	-0.0	-0.0	3.7431135177612314	-17.399372100830078	-640.483154296875	-0.0	-0.0	-0.0	-0.0	-0.0	-0.0	171728.75	-30659.5625	1273.7962646484375
0.018000000000000002	-0.0	-0.0	-0.0	-0.0	-0.0	-0.0	4.737120151519775	-17.328697204589844	-640.3441162109375	-0.0	-0.0	-0.0	-0.0	-0.0	-0.0	171354.90625	-30697.611328125	1244.857177734375
0.0185	-0.0	-0.0	-0.0	-0.0	-0.0	-0.0	4.329034328460693	-17.593730926513672	-641.0413208007812	-0.0	-0.0	-0.0	-0.0	-0.0	-0.0	171251.59375	-30789.78125	1291.9273681640625
0.019	-0.0	-0.0	-0.0	-0.0	-0.0	-0.0	4.489153861999512	-17.82318687438965	-639.645751953125	-0.0	-0.0	-0.0	-0.0	-0.0	-0.0	171276.0	-30723.1640625	1351.2593994140625
0.0195	-0.0	-0.0	-0.0	-0.0	-0.0	-0.0	3.797617197036743	-17.823118209838867	-638.2491455078125	-0.0	-0.0	-0.0	-0.0	-0.0	-0.0	170945.578125	-30518.0	1350.7208251953125
0.02	-0.0	-0.0	-0.0	-0.0	-0.0	-0.0	3.993366241455078	-17.858919143676758	-638.11279296875	-0.0	-0.0	-0.0	-0.0	-0.0	-0.0	170814.5625	-30563.826171875	1244.1937255859375
0.0205	-0.0	-0.0	-0.0	-0.0	-0.0	-0.0	4.2038774490356445	-17.822978973388672	-638.8763427734375	-0.0	-0.0	-0.0	-0.0	-0.0	-0.0	170761.71875	-30518.43359375	1161.97119140625
0.021	-0.0	-0.0	-0.0	-0.0	-0.0	-0.0	4.328685760498047	-18.15814018249512	-638.1063232421875	-0.0	-0.0	-0.0	-0.0	-0.0	-0.0	170764.875	-30522.39453125	1208.6253662109375
0.021500000000000002	-0.0	-0.0	-0.0	-0.0	-0.0	-0.0	4.276337623596191	-17.788938522338867	-638.105712890625	-0.0	-0.0	-0.0	-0.0	-0.0	-0.0	170520.984375	-30455.068359375	1286.261962890625
0.022	-0.0	-0.0	-0.0	-0.0	-0.0	-0.0	4.842527389526367	-17.929302215576172	-635.3839721679688	-0.0	-0.0	-0.0	-0.0	-0.0	-0.0	169971.484375	-30157.44140625	1197.6788330078125
0.0225	-0.0	-0.0	-0.0	-0.0	-0.0	-0.0	4.845440864562988	-18.19426727294922	-635.7930908203125	-0.0	-0.0	-0.0	-0.0	-0.0	-0.0	169724.578125	-30251.412109375	1286.652587890625
0.023	-0.0	-0.0	-0.0	-0.0	-0.0	-0.0	4.790382385253906	-18.14264488220215	-634.059326171875	-0.0	-0.0	-0.0	-0.0	-0.0	-0.0	169401.8125	-30090.30859375	1357.181640625
0.0235	-0.0	-0.0	-0.0	-0.0	-0.0	-0.0	4.890082359313965	-18.105945587158203	-632.1680297851562	-0.0	-0.0	-0.0	-0.0	-0.0	-0.0	169161.859375	-29910.6796875	1292.9837646484375
0.024	-0.0	-0.0	-0.0	-0.0	-0.0	-0.0	4.524250030517578	-17.719802856445312	-631.8345336914062	-0.0	-0.0	-0.0	-0.0	-0.0	-0.0	168862.5	-29952.53125	1268.0609130859375
0.0245	-0.0	-0.0	-0.0	-0.0	-0.0	-0.0	4.631593227386475	-18.031742095947266	-630.6236572265625	-0.0	-0.0	-0.0	-0.0	-0.0	-0.0	168757.484375	-29496.458984375	1166.583740234375
0.025	-0.0	-0.0	-0.0	-0.0	-0.0	-0.0	4.575555801391602	-17.45523452758789	-629.5203857421875	-0.0	-0.0	-0.0	-0.0	-0.0	-0.0	168488.4375	-29613.078125	1113.5462646484375
0.025500000000000002	-0.0	-0.0	-0.0	-0.0	-0.0	-0.0	4.416759490966797	-17.1021785736084	-628.6002807617188	-0.0	-0.0	-0.0	-0.0	-0.0	-0.0	168114.015625	-29422.7421875	1113.4713134765625
